<mxfile host="app.diagrams.net" agent="Mozilla/5.0 (Windows NT 10.0; Win64; x64; rv:136.0) Gecko/20100101 Firefox/136.0" version="26.1.3">
  <diagram name="Seite-1" id="fXeEnxFSeBbVZJitEgTp">
    <mxGraphModel dx="1456" dy="871" grid="1" gridSize="10" guides="1" tooltips="1" connect="1" arrows="1" fold="1" page="1" pageScale="1" pageWidth="827" pageHeight="1169" math="0" shadow="0">
      <root>
        <mxCell id="0" />
        <mxCell id="1" parent="0" />
        <mxCell id="M2bbNXAT3qn4xKFGE8Yk-1" value="" style="whiteSpace=wrap;html=1;" vertex="1" parent="1">
          <mxGeometry x="149" y="90" width="530" height="460" as="geometry" />
        </mxCell>
        <mxCell id="M2bbNXAT3qn4xKFGE8Yk-3" value="Fotos hochladen" style="ellipse;whiteSpace=wrap;html=1;" vertex="1" parent="1">
          <mxGeometry x="210" y="120" width="80" height="40" as="geometry" />
        </mxCell>
        <mxCell id="M2bbNXAT3qn4xKFGE8Yk-9" value="" style="group" vertex="1" connectable="0" parent="1">
          <mxGeometry x="50" y="180" width="70" height="70" as="geometry" />
        </mxCell>
        <mxCell id="M2bbNXAT3qn4xKFGE8Yk-7" value="" style="html=1;outlineConnect=0;whiteSpace=wrap;fillColor=#ffff99;verticalLabelPosition=bottom;verticalAlign=top;align=center;shape=mxgraph.archimate3.actor;" vertex="1" parent="M2bbNXAT3qn4xKFGE8Yk-9">
          <mxGeometry x="21.75" width="26.5" height="50" as="geometry" />
        </mxCell>
        <mxCell id="M2bbNXAT3qn4xKFGE8Yk-8" value="&lt;div&gt;Fotograf&lt;/div&gt;" style="text;html=1;align=center;verticalAlign=middle;resizable=0;points=[];autosize=1;strokeColor=none;fillColor=none;" vertex="1" parent="M2bbNXAT3qn4xKFGE8Yk-9">
          <mxGeometry y="40" width="70" height="30" as="geometry" />
        </mxCell>
        <mxCell id="M2bbNXAT3qn4xKFGE8Yk-10" value="&lt;div&gt;TFP-Collab-Programm&lt;/div&gt;" style="text;html=1;align=center;verticalAlign=middle;whiteSpace=wrap;rounded=0;" vertex="1" parent="1">
          <mxGeometry x="350" y="90" width="130" height="30" as="geometry" />
        </mxCell>
        <mxCell id="M2bbNXAT3qn4xKFGE8Yk-12" value="Fotos löschen" style="ellipse;whiteSpace=wrap;html=1;" vertex="1" parent="1">
          <mxGeometry x="310" y="120" width="80" height="40" as="geometry" />
        </mxCell>
        <mxCell id="M2bbNXAT3qn4xKFGE8Yk-13" value="Galerie erstellen" style="ellipse;whiteSpace=wrap;html=1;" vertex="1" parent="1">
          <mxGeometry x="190" y="240" width="80" height="40" as="geometry" />
        </mxCell>
        <mxCell id="M2bbNXAT3qn4xKFGE8Yk-14" value="Galerie bearbeiten" style="ellipse;whiteSpace=wrap;html=1;" vertex="1" parent="1">
          <mxGeometry x="290" y="240" width="80" height="40" as="geometry" />
        </mxCell>
        <mxCell id="M2bbNXAT3qn4xKFGE8Yk-15" value="Galerie löschen" style="ellipse;whiteSpace=wrap;html=1;" vertex="1" parent="1">
          <mxGeometry x="380" y="240" width="80" height="40" as="geometry" />
        </mxCell>
        <mxCell id="M2bbNXAT3qn4xKFGE8Yk-16" value="Fotos sortieren" style="ellipse;whiteSpace=wrap;html=1;labelBackgroundColor=none;fillColor=#fff2cc;strokeColor=#d6b656;" vertex="1" parent="1">
          <mxGeometry x="590" y="120" width="80" height="40" as="geometry" />
        </mxCell>
        <mxCell id="M2bbNXAT3qn4xKFGE8Yk-17" value="Noch nicht geklärt, ob notwendig" style="text;html=1;align=center;verticalAlign=middle;whiteSpace=wrap;rounded=0;fillColor=#fff2cc;strokeColor=#d6b656;" vertex="1" parent="1">
          <mxGeometry x="510" y="20" width="110" height="40" as="geometry" />
        </mxCell>
        <mxCell id="M2bbNXAT3qn4xKFGE8Yk-18" value="Galerie freigeben" style="ellipse;whiteSpace=wrap;html=1;" vertex="1" parent="1">
          <mxGeometry x="560" y="240" width="80" height="40" as="geometry" />
        </mxCell>
        <mxCell id="M2bbNXAT3qn4xKFGE8Yk-19" value="Galerie öffnen" style="ellipse;whiteSpace=wrap;html=1;" vertex="1" parent="1">
          <mxGeometry x="470" y="240" width="80" height="40" as="geometry" />
        </mxCell>
        <mxCell id="M2bbNXAT3qn4xKFGE8Yk-20" value="Foto Post erstellen(Social media)" style="ellipse;whiteSpace=wrap;html=1;labelBackgroundColor=none;fillColor=#e1d5e7;strokeColor=#9673a6;" vertex="1" parent="1">
          <mxGeometry x="170" y="440" width="80" height="40" as="geometry" />
        </mxCell>
        <mxCell id="M2bbNXAT3qn4xKFGE8Yk-21" value="Zukunfts-Feature" style="text;html=1;align=center;verticalAlign=middle;whiteSpace=wrap;rounded=0;fillColor=#e1d5e7;strokeColor=#9673a6;" vertex="1" parent="1">
          <mxGeometry x="390" y="20" width="110" height="40" as="geometry" />
        </mxCell>
        <mxCell id="M2bbNXAT3qn4xKFGE8Yk-22" value="Galerien sortieren" style="ellipse;whiteSpace=wrap;html=1;labelBackgroundColor=none;fillColor=#fff2cc;strokeColor=#d6b656;" vertex="1" parent="1">
          <mxGeometry x="560" y="290" width="80" height="40" as="geometry" />
        </mxCell>
        <mxCell id="M2bbNXAT3qn4xKFGE8Yk-23" value="Termine" style="ellipse;whiteSpace=wrap;html=1;fillColor=#e1d5e7;strokeColor=#9673a6;" vertex="1" parent="1">
          <mxGeometry x="260" y="440" width="80" height="40" as="geometry" />
        </mxCell>
        <mxCell id="M2bbNXAT3qn4xKFGE8Yk-24" value="Moodboard" style="ellipse;whiteSpace=wrap;html=1;fillColor=#e1d5e7;strokeColor=#9673a6;" vertex="1" parent="1">
          <mxGeometry x="400" y="470" width="80" height="40" as="geometry" />
        </mxCell>
        <mxCell id="M2bbNXAT3qn4xKFGE8Yk-25" value="Portfolio" style="ellipse;whiteSpace=wrap;html=1;fillColor=#e1d5e7;strokeColor=#9673a6;" vertex="1" parent="1">
          <mxGeometry x="170" y="490" width="80" height="40" as="geometry" />
        </mxCell>
        <mxCell id="M2bbNXAT3qn4xKFGE8Yk-26" value="Fotos bewerten" style="ellipse;whiteSpace=wrap;html=1;" vertex="1" parent="1">
          <mxGeometry x="400" y="120" width="80" height="40" as="geometry" />
        </mxCell>
        <mxCell id="M2bbNXAT3qn4xKFGE8Yk-27" value="Model" style="html=1;outlineConnect=0;whiteSpace=wrap;fillColor=#ffff99;verticalLabelPosition=bottom;verticalAlign=top;align=center;shape=mxgraph.archimate3.actor;" vertex="1" parent="1">
          <mxGeometry x="80" y="690" width="26.5" height="50" as="geometry" />
        </mxCell>
        <mxCell id="M2bbNXAT3qn4xKFGE8Yk-30" value="" style="whiteSpace=wrap;html=1;perimeter=rectanglePerimeter;" vertex="1" parent="1">
          <mxGeometry x="150" y="570" width="530" height="240" as="geometry" />
        </mxCell>
        <mxCell id="M2bbNXAT3qn4xKFGE8Yk-28" value="Fotos runterladen" style="ellipse;whiteSpace=wrap;html=1;" vertex="1" parent="1">
          <mxGeometry x="190" y="700" width="80" height="40" as="geometry" />
        </mxCell>
        <mxCell id="M2bbNXAT3qn4xKFGE8Yk-33" value="Galerie öffnen" style="ellipse;whiteSpace=wrap;html=1;" vertex="1" parent="1">
          <mxGeometry x="280" y="640" width="80" height="40" as="geometry" />
        </mxCell>
        <mxCell id="M2bbNXAT3qn4xKFGE8Yk-34" value="Fotos sortieren" style="ellipse;whiteSpace=wrap;html=1;labelBackgroundColor=none;fillColor=#fff2cc;strokeColor=#d6b656;" vertex="1" parent="1">
          <mxGeometry x="570" y="620" width="80" height="40" as="geometry" />
        </mxCell>
        <mxCell id="M2bbNXAT3qn4xKFGE8Yk-35" value="Fotos bewerten" style="ellipse;whiteSpace=wrap;html=1;" vertex="1" parent="1">
          <mxGeometry x="190" y="640" width="80" height="40" as="geometry" />
        </mxCell>
        <mxCell id="M2bbNXAT3qn4xKFGE8Yk-36" value="Fotos runterladen" style="ellipse;whiteSpace=wrap;html=1;" vertex="1" parent="1">
          <mxGeometry x="209" y="170" width="80" height="40" as="geometry" />
        </mxCell>
        <mxCell id="M2bbNXAT3qn4xKFGE8Yk-37" value="&lt;div&gt;TFP-Collab-Programm&lt;/div&gt;" style="text;html=1;align=center;verticalAlign=middle;whiteSpace=wrap;rounded=0;" vertex="1" parent="1">
          <mxGeometry x="340" y="580" width="130" height="30" as="geometry" />
        </mxCell>
        <mxCell id="M2bbNXAT3qn4xKFGE8Yk-38" value="Fotos kommentieren" style="ellipse;whiteSpace=wrap;html=1;fillColor=#e1d5e7;strokeColor=#9673a6;" vertex="1" parent="1">
          <mxGeometry x="500" y="120" width="80" height="40" as="geometry" />
        </mxCell>
        <mxCell id="M2bbNXAT3qn4xKFGE8Yk-39" value="Fotos kommentieren" style="ellipse;whiteSpace=wrap;html=1;fillColor=#e1d5e7;strokeColor=#9673a6;" vertex="1" parent="1">
          <mxGeometry x="570" y="670" width="80" height="40" as="geometry" />
        </mxCell>
        <mxCell id="M2bbNXAT3qn4xKFGE8Yk-40" value="Fotos auswählen" style="ellipse;whiteSpace=wrap;html=1;" vertex="1" parent="1">
          <mxGeometry x="310" y="170" width="80" height="40" as="geometry" />
        </mxCell>
        <mxCell id="M2bbNXAT3qn4xKFGE8Yk-41" value="Fotos auswählen" style="ellipse;whiteSpace=wrap;html=1;" vertex="1" parent="1">
          <mxGeometry x="280" y="700" width="80" height="40" as="geometry" />
        </mxCell>
        <mxCell id="M2bbNXAT3qn4xKFGE8Yk-44" value="Termine" style="ellipse;whiteSpace=wrap;html=1;fillColor=#e1d5e7;strokeColor=#9673a6;" vertex="1" parent="1">
          <mxGeometry x="580" y="720" width="80" height="40" as="geometry" />
        </mxCell>
        <mxCell id="M2bbNXAT3qn4xKFGE8Yk-45" value="Portfolio" style="ellipse;whiteSpace=wrap;html=1;fillColor=#e1d5e7;strokeColor=#9673a6;" vertex="1" parent="1">
          <mxGeometry x="490" y="720" width="80" height="40" as="geometry" />
        </mxCell>
        <mxCell id="M2bbNXAT3qn4xKFGE8Yk-46" value="Fotos aus Papierkorb löschen" style="ellipse;whiteSpace=wrap;html=1;" vertex="1" parent="1">
          <mxGeometry x="170" y="360" width="90" height="50" as="geometry" />
        </mxCell>
        <mxCell id="M2bbNXAT3qn4xKFGE8Yk-47" value="Fotos aus Papierkorb zu Gallerie zuweisen" style="ellipse;whiteSpace=wrap;html=1;" vertex="1" parent="1">
          <mxGeometry x="265" y="345" width="115" height="80" as="geometry" />
        </mxCell>
        <mxCell id="M2bbNXAT3qn4xKFGE8Yk-48" value="Fotos aus Papierkorb zu Moodboard zuweisen" style="ellipse;whiteSpace=wrap;html=1;fillColor=#e1d5e7;strokeColor=#9673a6;" vertex="1" parent="1">
          <mxGeometry x="482.5" y="450" width="115" height="80" as="geometry" />
        </mxCell>
      </root>
    </mxGraphModel>
  </diagram>
</mxfile>
